<svg width="20" height="20" viewBox="0 0 20 20" fill="none" xmlns="http://www.w3.org/2000/svg">
<g clip-path="url(#clip0_1_15)">
<path d="M10 1.66666C5.3975 1.66666 1.66666 5.39749 1.66666 9.99999C1.66666 14.1592 4.71416 17.6067 8.69833 18.2325V12.4083H6.58166V9.99999H8.69833V8.16416C8.69833 6.07582 9.94166 4.92249 11.8458 4.92249C12.7575 4.92249 13.7108 5.08499 13.7108 5.08499V7.13499H12.6608C11.625 7.13499 11.3025 7.77749 11.3025 8.43666V9.99999H13.6133L13.2442 12.4083H11.3025V18.2325C15.2858 17.6075 18.3333 14.1583 18.3333 9.99999C18.3333 5.39749 14.6025 1.66666 10 1.66666Z" fill="#7C5AC7"/>
</g>
<defs>
<clipPath id="clip0_1_15">
<rect width="20" height="20" fill="white"/>
</clipPath>
</defs>
</svg>
