<svg width="20" height="20" viewBox="0 0 20 20" fill="none" xmlns="http://www.w3.org/2000/svg">
<g clip-path="url(#clip0_1_27)">
<path d="M5.78333 4.16668C5.78311 4.6087 5.6073 5.03254 5.29459 5.34494C4.98187 5.65735 4.55786 5.83273 4.11583 5.83251C3.6738 5.83229 3.24997 5.65648 2.93756 5.34377C2.62516 5.03105 2.44978 4.60704 2.45 4.16501C2.45022 3.72298 2.62602 3.29915 2.93874 2.98674C3.25146 2.67434 3.67547 2.49896 4.1175 2.49918C4.55952 2.4994 4.98336 2.6752 5.29576 2.98792C5.60817 3.30064 5.78355 3.72465 5.78333 4.16668ZM5.83333 7.06668H2.5V17.5H5.83333V7.06668ZM11.1 7.06668H7.78333V17.5H11.0667V12.025C11.0667 8.97501 15.0417 8.69168 15.0417 12.025V17.5H18.3333V10.8917C18.3333 5.75001 12.45 5.94168 11.0667 8.46668L11.1 7.06668Z" fill="#7C5AC7"/>
</g>
<defs>
<clipPath id="clip0_1_27">
<rect width="20" height="20" fill="white"/>
</clipPath>
</defs>
</svg>
