<svg width="23" height="23" viewBox="0 0 23 23" fill="none" xmlns="http://www.w3.org/2000/svg">
<g clip-path="url(#clip0_1_505)">
<path d="M16.8841 14.4889L17.043 14.6487L17.2037 14.4889C17.3923 14.3003 17.6163 14.1507 17.8627 14.0486C18.1092 13.9465 18.3733 13.894 18.64 13.894C18.9068 13.894 19.1709 13.9465 19.4174 14.0486C19.6638 14.1507 19.8877 14.3003 20.0764 14.4889C20.265 14.6776 20.4146 14.9015 20.5167 15.1479C20.6188 15.3944 20.6713 15.6585 20.6713 15.9253C20.6713 16.192 20.6188 16.4562 20.5167 16.7026C20.4146 16.949 20.265 17.173 20.0764 17.3616L17.043 20.394L14.0115 17.3616C13.6306 16.9806 13.4166 16.464 13.4166 15.9253C13.4166 15.3865 13.6306 14.8699 14.0115 14.4889C14.3924 14.108 14.9091 13.894 15.4478 13.894C15.9865 13.894 16.5032 14.108 16.8841 14.4889ZM11.611 12.9912V14.7968C10.1744 14.7968 8.79668 15.3675 7.78085 16.3833C6.76503 17.3991 6.19435 18.7769 6.19435 20.2135H4.38879C4.38882 18.3371 5.11908 16.5344 6.42498 15.1871C7.73088 13.8397 9.50988 13.0535 11.3853 12.9948L11.611 12.9912ZM11.611 1.25513C14.6037 1.25513 17.0277 3.67909 17.0277 6.67179C17.0282 8.07338 16.4852 9.42056 15.5129 10.4301C14.5406 11.4396 13.2148 12.0327 11.8141 12.0848L11.611 12.0885C8.61831 12.0885 6.19435 9.6645 6.19435 6.67179C6.19385 5.2702 6.73683 3.92302 7.70913 2.91352C8.68142 1.90402 10.0073 1.31085 11.4079 1.25874L11.611 1.25513ZM11.611 3.06068C9.61588 3.06068 7.99991 4.67665 7.99991 6.67179C7.99991 8.66693 9.61588 10.2829 11.611 10.2829C13.6062 10.2829 15.2221 8.66693 15.2221 6.67179C15.2221 4.67665 13.6062 3.06068 11.611 3.06068Z" fill="#37B369"/>
</g>
<defs>
<clipPath id="clip0_1_505">
<rect width="21.6667" height="21.6667" fill="white" transform="translate(0.777832 0.352051)"/>
</clipPath>
</defs>
</svg>
